<svg width="70" height="40" viewBox="0 0 70 40" fill="none" xmlns="http://www.w3.org/2000/svg">
<path d="M0.408229 39.0622C0.408229 37.597 0.408229 36.2394 0.408229 34.8011C0.730837 34.8011 1.02656 34.8011 1.30884 34.8011C12.1297 34.8011 9.84403 34.8011 20.6648 34.8011C23.4742 34.8011 25.3427 32.1799 24.3748 29.6394C23.7834 28.0801 22.3585 27.1661 20.517 27.1661C16.4441 27.1661 12.3577 27.1795 8.28475 27.1661C3.90266 27.1526 0.407738 23.9131 0.0313624 19.5579C-0.371898 14.9607 3.16335 10.7534 7.77396 10.6458C13.9976 10.5114 20.2213 10.6055 26.4583 10.6055C26.5256 10.6055 26.5793 10.6324 26.6869 10.6593C26.6869 12.0304 26.6869 13.4014 26.6869 14.8532C26.3643 14.8532 26.0685 14.8532 25.7862 14.8532C19.9659 14.8532 14.132 14.8397 8.31164 14.8532C5.15277 14.8666 3.21712 18.1465 4.76295 20.8618C5.54258 22.2328 6.79269 22.9049 8.37885 22.9184C12.5862 22.9318 16.807 22.8512 21.0143 22.9587C24.4824 23.0394 26.9691 24.8271 28.273 28.0263C30.4103 33.2553 26.5793 38.995 20.9337 39.0488C14.3202 39.116 20.8266 39.0622 14.2132 39.0757C9.88484 39.0757 5.56996 39.0757 1.24163 39.0757C0.986235 39.0622 0.717395 39.0622 0.408229 39.0622Z" fill="white"/>
<path d="M38.4775 10.579H64.9787L51.7349 36.6699L44.8637 24.2898" fill="#EE1E87"/>
<path d="M64.98 10.5788L64.2659 10.5654C64.2659 10.5654 56.7885 23.9805 53.2451 30.8494C52.7062 31.8844 52.1673 32.9194 51.588 34.0351C51.4398 33.7797 51.3455 33.6184 51.2511 33.4437C49.2976 29.4917 47.3575 26.5614 45.4039 22.6094C43.5177 18.7919 39.3815 10.5788 39.3815 10.5788H39.139C39.139 10.5788 36.4983 10.5519 35.0837 10.5519C34.9355 20.3915 34.8142 29.196 34.666 39.0221C36.2289 39.0221 37.6839 39.0221 39.2333 39.0221C39.3276 33.1345 39.4219 28.0938 39.5028 22.2196L39.9204 22.8783C42.6824 28.0938 45.4443 32.3011 48.1928 37.53L49.0012 39.0893H54.2421L55.4951 36.5219C58.0819 31.4811 60.6822 27.4485 63.2824 22.4212C63.6866 21.6416 64.2525 20.4587 64.6567 19.6791V20.1227C64.6567 26.7496 64.6567 32.3683 64.6567 39.0221C66.1926 39.0221 67.6342 39.0221 69.1566 39.0221C69.1566 29.196 69.1566 20.4453 69.1566 10.6192C67.715 10.6057 64.98 10.5788 64.98 10.5788Z" fill="white"/>
<path d="M54.1353 0H49.6758V21.5744H54.1353V0Z" fill="white"/>
</svg>
