<svg width="380" height="155" viewBox="0 0 380 155" fill="none" xmlns="http://www.w3.org/2000/svg">
<path d="M103.057 10.7522C111.844 5.69839 122.916 8.61893 128.021 17.3043C132.846 25.558 130.205 35.9196 123.653 40.5924C122.053 37.5957 120.504 34.7006 118.98 31.78C117.863 29.6468 116.72 27.5389 115.602 25.3803C115.247 24.6946 114.866 24.466 114.104 24.8977C112.352 25.8882 110.574 26.8532 108.746 27.7421C107.882 28.1738 107.78 28.6055 108.212 29.4182C110.625 33.9133 113.012 38.4338 115.425 42.9543C115.628 43.3606 115.831 43.7669 116.034 44.1733C110.523 46.1034 100.898 43.6654 96.3523 35.5894C91.3239 26.7262 94.473 15.679 103.057 10.7522Z" fill="#EE1E87"/>
<path d="M228.97 118.609C239.055 118.609 247.23 110.32 247.23 100.095C247.23 89.8703 239.055 81.5814 228.97 81.5814C218.885 81.5814 210.71 89.8703 210.71 100.095C210.71 110.32 218.885 118.609 228.97 118.609Z" fill="#EE1E87"/>
<path d="M375.073 78.9911H335.887V127.193H375.073V78.9911Z" fill="#EE1E87"/>
<path d="M371.035 125.516V127.193H379.162L376.038 120.107" fill="white"/>
<path d="M77.4069 32.9737C74.9435 26.9294 70.2452 23.5772 63.6931 23.3994C55.7441 23.1962 47.7698 23.3486 39.8209 23.3232C36.8241 23.3232 34.4877 22.0534 32.9893 19.4376C30.0688 14.3076 33.7258 8.11101 39.6939 8.08561C50.6903 8.06022 61.7122 8.08561 72.7086 8.08561C73.2419 8.08561 73.7753 8.08561 74.4102 8.08561C74.4102 5.34285 74.4102 2.75246 74.4102 0.162075C74.207 0.111283 74.08 0.0604925 73.9784 0.0604925C62.2201 0.0604925 50.4364 -0.11728 38.678 0.136679C29.9672 0.339847 23.2881 8.26339 24.05 16.9234C24.7611 25.1517 31.364 31.2721 39.6431 31.2975C47.3381 31.3229 55.0584 31.2975 62.7534 31.2975C66.258 31.2975 68.9246 33.0244 70.042 35.9704C71.8706 40.7956 68.3405 45.7224 63.0328 45.7224C42.589 45.7224 22.1453 45.7224 1.70153 45.7224C1.16821 45.7224 0.634899 45.7224 0 45.7224C0 48.4906 0 51.0556 0 53.8237C0.584107 53.8237 1.09203 53.8237 1.57455 53.8237C9.75205 53.8237 17.9041 53.8237 26.0816 53.8237C38.5765 53.8237 51.0459 53.8999 63.5407 53.7983C74.2324 53.6968 81.4448 42.8527 77.4069 32.9737Z" fill="white"/>
<path d="M270.569 53.7983C272.372 53.7983 274.2 53.5698 275.978 53.1888C289.489 50.3191 298.555 37.6719 297.056 23.8819C295.609 10.4474 284.054 0.0858936 270.442 0.0351017C258.099 -0.0156903 245.731 0.0351017 233.389 0.0351017C232.983 0.0351017 232.576 0.0351017 232.119 0.0351017C232.119 18.0154 232.119 35.818 232.119 53.7476C232.602 53.7729 232.932 53.7983 233.262 53.7983C245.706 53.8237 258.15 53.8491 270.569 53.7983ZM240.297 8.26339C240.779 8.238 241.185 8.18721 241.592 8.18721C251.115 8.18721 260.639 8.18721 270.137 8.18721C279.229 8.2126 287 14.5108 288.701 23.2216C290.454 32.1864 285.705 41.0496 277.197 44.3256C275.114 45.1383 272.778 45.6208 270.543 45.6462C260.766 45.7732 251.014 45.697 241.236 45.697C240.957 45.697 240.652 45.6462 240.297 45.6208C240.297 33.1514 240.297 20.7328 240.297 8.26339Z" fill="white"/>
<path d="M147.551 28.2245C147.551 29.3928 147.652 30.5864 147.804 31.7546C149.531 45.697 163.398 55.9569 177.213 53.5189C190.063 51.2587 198.85 40.8209 198.85 27.7674C198.876 8.46649 198.85 20.8403 198.85 1.53938C198.85 1.08225 198.85 27.168 198.85 0.167999C196.108 0.167999 193.517 0.167999 190.825 0.167999C190.825 0.777502 190.825 1.28542 190.825 1.79334C190.825 20.6625 190.825 7.88238 190.825 26.7516C190.825 28.0722 190.825 29.3928 190.622 30.688C189.2 40.0337 181.073 46.4588 171.575 45.7478C162.56 45.0875 155.474 37.1893 155.499 27.9198C155.525 19.7931 155.525 9.66638 155.525 1.53968C155.525 1.08255 155.525 0.625424 155.499 0.168297C152.807 0.168297 150.141 0.168297 147.5 0.168297C147.474 0.65082 147.5 1.05715 147.5 1.46349C147.525 9.71717 147.525 19.9709 147.551 28.2245Z" fill="white"/>
<path d="M218.964 0.136658C216.221 0.136658 213.555 0.136658 210.863 0.136658C210.863 18.0408 210.863 35.8688 210.863 53.7475C213.605 53.7475 216.297 53.7475 218.964 53.7475C218.964 35.818 218.964 17.9646 218.964 0.136658Z" fill="white"/>
<path d="M96.657 47.9318C103.869 53.1126 111.818 54.2046 120.326 51.792C124.186 59.0552 127.996 66.2169 131.932 73.6325C131.653 91.5874 131.399 109.39 131.119 127.32C134.065 127.32 136.808 127.32 139.729 127.32C139.906 116.196 140.084 104.743 140.236 93.6699L141.024 94.9143C146.23 104.768 151.436 114.622 156.617 124.501L158.141 127.447H168.02L170.382 122.596C175.258 113.072 180.159 103.549 185.06 94.0255C185.822 92.5525 186.889 90.3176 187.651 88.8447V89.6827C187.651 102.203 187.651 139.922 187.651 152.493C190.546 152.493 193.263 152.493 196.133 152.493C196.133 133.929 196.133 90.2923 196.133 71.7278C193.441 71.7278 188.26 71.7024 188.26 71.7024L186.914 71.677C186.914 71.677 172.82 98.9269 166.14 111.904C165.125 113.86 164.109 115.815 163.017 117.923C162.737 117.441 162.56 117.136 162.382 116.806C158.699 109.339 155.042 101.873 151.36 94.4064C147.804 87.1939 140.059 71.7786 140.059 71.7786C140.033 71.7278 140.008 71.677 139.983 71.6008C137.341 66.7756 135.868 63.9058 133.278 59.0552C131.348 55.449 129.443 51.8174 127.513 48.2111C139.932 39.0432 141.481 23.3485 134.726 12.5552C127.792 1.48259 114.002 -2.93631 101.965 2.11748C90.1303 7.0697 83.4765 20.0724 86.4479 32.4911C87.9462 38.8908 91.3239 44.1224 96.657 47.9318ZM103.057 10.7521C111.844 5.69831 122.916 8.61885 128.021 17.3043C132.846 25.558 130.205 35.9195 123.653 40.5924C122.053 37.5956 120.504 34.7005 118.98 31.78C117.863 29.6467 116.72 27.5388 115.602 25.3802L115.044 24.2374L107.552 28.1737L108.365 29.6467C110.726 34.0656 113.088 38.5099 115.425 42.9288C115.628 43.3351 115.831 43.7415 116.034 44.1478C110.523 46.0779 100.898 43.6399 96.3523 35.564C91.3239 26.7262 94.473 15.6789 103.057 10.7521Z" fill="white"/>
<path d="M229.275 127.142C244.081 127.142 256.067 115.13 256.067 100.349C256.067 85.5687 244.055 73.5564 229.275 73.5564C214.469 73.5564 202.482 85.5687 202.482 100.349C202.482 115.13 214.469 127.142 229.275 127.142ZM228.97 81.6069C239.052 81.6069 247.23 89.886 247.23 100.121C247.23 110.355 239.052 118.634 228.97 118.634C218.888 118.634 210.71 110.355 210.71 100.121C210.71 89.886 218.862 81.6069 228.97 81.6069Z" fill="white"/>
<path d="M265.159 100.349C265.159 115.155 277.171 127.142 291.952 127.142C306.758 127.142 318.745 115.129 318.745 100.349C318.745 85.5686 306.732 73.5563 291.952 73.5563C277.171 73.5309 265.159 85.5432 265.159 100.349ZM309.932 100.095C309.932 110.304 301.755 118.609 291.673 118.609C281.59 118.609 273.413 110.33 273.413 100.095C273.413 89.8605 281.59 81.5814 291.673 81.5814C301.755 81.6068 309.932 89.8859 309.932 100.095Z" fill="white"/>
<path d="M331.062 127.193H336.115V123.536C336.115 109.187 336.115 80.464 336.115 80.464L371.035 80.4386C371.035 80.4386 371.035 111.828 371.035 125.161C371.035 125.618 370.984 126.101 371.086 126.558C371.136 126.812 371.467 127.167 371.67 127.167C374.159 127.218 376.622 127.193 379.162 127.193C379.162 109.771 379.162 89.6319 379.162 72.3119C362.07 72.3119 345.029 72.3119 327.963 72.3119C327.963 89.6319 327.963 109.746 327.963 127.193C329.03 127.193 330.046 127.193 331.062 127.193Z" fill="white"/>
<path d="M357.778 100.552H349.372V154.493H357.778V100.552Z" fill="white"/>
</svg>
